<svg width="24" height="18" viewBox="0 0 24 18" xmlns="http://www.w3.org/2000/svg">
<path d="M16.214 0L16.139 0.374708C16.023 1.08483 16.065 1.288 16.383 1.55154L16.69 1.79496L16.372 3.15388C16.182 3.96463 15.949 4.64408 15.801 4.86737C15.674 5.06 15.526 5.34367 15.494 5.49604C15.441 5.67812 15.261 5.86117 14.986 6.02313C14.743 6.15538 14.266 6.50996 13.928 6.79458C13.658 7.02746 13.472 7.17025 13.371 7.23158L13.041 7.48171C12.935 7.64463 12.875 7.77592 12.852 7.87558C12.829 7.97812 12.842 8.04617 12.876 8.096C12.909 8.14392 12.966 8.17746 13.044 8.19854C13.1363 8.21928 13.2314 8.22671 13.326 8.22058C13.5401 8.20657 13.7519 8.17058 13.958 8.11325C14.028 8.09504 14.083 8.07779 14.131 8.06246C14.205 7.97525 14.376 7.81042 14.679 7.52388C15.483 6.76392 15.79 6.348 15.473 6.46013C15.356 6.50038 15.409 6.39879 15.61 6.19563C16.034 5.79983 16.277 5.20183 16.785 3.32637C17.187 1.84575 17.187 1.82467 17.483 1.82467C17.622 1.82467 18.015 1.84767 18.015 1.84767V0H17.113H16.214ZM20.053 3.03313C19.989 3.03313 19.883 3.12512 19.82 3.22671C19.704 3.40879 19.841 3.51996 21.587 4.56454C22.624 5.19417 23.46 5.73083 23.439 5.77204C23.418 5.80175 22.571 6.32979 21.556 6.93833C19.714 8.03275 19.704 8.04329 19.873 8.26658C20.085 8.53012 19.873 8.62117 22.264 7.19133L24 6.12662V5.32546L22.063 4.17929C21.016 3.55063 20.106 3.04367 20.053 3.03313ZM3.968 3.14525C3.915 3.14525 3.005 3.66275 1.958 4.28088L0 5.42704V6.22821L1.947 7.3945C3.027 8.03275 3.937 8.56079 3.979 8.56079C4.021 8.56079 4.106 8.46879 4.191 8.35763C4.318 8.165 4.211 8.08354 2.423 6.99871C0.72 5.97425 0.54 5.83242 0.71 5.72125C0.816 5.65033 1.62 5.17308 2.488 4.65654C4.467 3.49025 4.361 3.57075 4.202 3.32733C4.139 3.22671 4.032 3.13567 3.969 3.14525H3.968ZM12.652 3.16729C12.36 3.16538 11.732 3.59183 9.852 5.06288C9.771 5.24783 9.764 5.37529 9.801 5.45771C9.825 5.51425 9.869 5.55354 9.93 5.58229C9.99 5.61104 10.068 5.62829 10.154 5.635C10.325 5.64938 10.527 5.6235 10.69 5.59283L10.8 5.56888C10.8377 5.52049 10.8871 5.48166 10.944 5.45579C11.06 5.39446 11.547 4.96896 12.034 4.51279C12.891 3.68096 13.092 3.30529 12.743 3.18358C12.7144 3.17267 12.6838 3.16714 12.653 3.16729H12.652ZM14.848 3.74517C14.591 3.75188 14.128 4.03746 13.335 4.64408C12.937 4.95362 12.685 5.12037 12.55 5.15487L12.026 5.55163C11.829 5.89663 11.8 6.11033 11.852 6.22821C11.865 6.25729 11.8839 6.2836 11.9076 6.30565C11.9313 6.32769 11.9593 6.34501 11.99 6.35663C12.0664 6.38554 12.1479 6.40017 12.23 6.39975C12.4263 6.39774 12.6214 6.37034 12.81 6.31829C12.9083 6.29301 13.0054 6.26359 13.101 6.23012L13.13 6.21863L13.183 6.19179C13.283 6.06817 13.513 5.83529 13.801 5.56696C14.711 4.72554 15.176 4.12754 15.081 3.90425C15.038 3.79596 14.964 3.74133 14.848 3.74517V3.74517ZM12.424 4.78017C12.35 4.78783 12.184 4.9105 11.885 5.16158C11.453 5.52767 10.982 5.7385 10.819 5.64458C10.7811 5.65278 10.7431 5.66045 10.705 5.66758C10.539 5.69921 10.332 5.72508 10.147 5.71071C10.0598 5.70565 9.9744 5.68518 9.895 5.65033C9.82011 5.61752 9.76035 5.55957 9.727 5.48742C9.69 5.40117 9.69 5.29383 9.732 5.15679L9.082 5.66854L7.611 6.83483V8.72562L12.431 5.08683C12.4301 5.04699 12.4355 5.00724 12.447 4.96896C12.484 4.84054 12.482 4.77538 12.424 4.78113V4.78017ZM14.498 5.39254C14.425 5.39254 14.303 5.49125 14.108 5.68963C13.843 5.96083 13.426 6.22342 13.205 6.27708L13.171 6.29433C13.1347 6.30869 13.098 6.32211 13.061 6.33458C13.001 6.35375 12.923 6.37675 12.833 6.39975C12.653 6.44671 12.429 6.48983 12.229 6.48504C12.1347 6.48493 12.0413 6.46735 11.954 6.43329C11.8717 6.40078 11.8057 6.33894 11.77 6.26079C11.712 6.12758 11.735 5.94071 11.862 5.67525L7.61 8.88471V10.0395H9.478L13.44 7.05717C13.543 6.94792 13.698 6.79842 13.907 6.61154C14.467 6.11417 14.594 5.94263 14.594 5.68867C14.594 5.49125 14.571 5.39158 14.498 5.39158V5.39254ZM15.441 7.26129L15.102 7.58521C14.912 7.75771 14.573 7.97046 14.341 8.0615L14.295 8.08067L14.292 8.08546L14.282 8.09504C14.273 8.10175 14.269 8.10271 14.262 8.10558C14.1694 8.13918 14.0753 8.16891 13.98 8.19471C13.7681 8.25381 13.5502 8.29076 13.33 8.30492C13.2259 8.31131 13.1214 8.30259 13.02 8.27904C12.932 8.26048 12.8543 8.21131 12.802 8.14104C12.754 8.07013 12.74 7.97525 12.767 7.85833C12.7885 7.77509 12.8204 7.69465 12.862 7.61875L9.665 10.0395H13.917L14.425 9.48175C15.123 8.70167 15.441 8.14392 15.441 7.66667V7.26129Z"/>
<path d="M1.54261 11.8303L1.12713 11.8558C1.12003 11.8203 1.10476 11.7884 1.08132 11.7599C1.05788 11.7308 1.02699 11.7077 0.988636 11.6907C0.950994 11.6729 0.905895 11.6641 0.853338 11.6641C0.783026 11.6641 0.723722 11.679 0.675426 11.7088C0.627131 11.7379 0.602983 11.777 0.602983 11.826C0.602983 11.8651 0.618608 11.8981 0.649858 11.9251C0.681108 11.9521 0.73473 11.9737 0.810724 11.9901L1.10689 12.0497C1.26598 12.0824 1.38459 12.1349 1.46271 12.2074C1.54084 12.2798 1.5799 12.375 1.5799 12.4929C1.5799 12.6001 1.5483 12.6942 1.48509 12.7752C1.42259 12.8562 1.33665 12.9194 1.22727 12.9648C1.11861 13.0096 0.993253 13.032 0.851207 13.032C0.634588 13.032 0.462003 12.9869 0.333452 12.8967C0.205611 12.8058 0.130682 12.6822 0.108665 12.5259L0.555043 12.5025C0.568537 12.5685 0.601207 12.619 0.653054 12.6538C0.704901 12.6879 0.771307 12.7049 0.852273 12.7049C0.931818 12.7049 0.995739 12.6896 1.04403 12.6591C1.09304 12.6278 1.1179 12.5877 1.11861 12.5387C1.1179 12.4975 1.1005 12.4638 1.06641 12.4375C1.03232 12.4105 0.979759 12.3899 0.908736 12.3757L0.625355 12.3192C0.465554 12.2873 0.346591 12.2319 0.268466 12.1531C0.191051 12.0742 0.152344 11.9737 0.152344 11.8516C0.152344 11.7464 0.180753 11.6559 0.237571 11.5799C0.295099 11.5039 0.37571 11.4453 0.479403 11.4041C0.583807 11.3629 0.705966 11.3423 0.845881 11.3423C1.05256 11.3423 1.2152 11.386 1.33381 11.4734C1.45313 11.5607 1.52273 11.6797 1.54261 11.8303ZM2.73606 11.3636V11.7045H1.75062V11.3636H2.73606ZM1.97434 10.9716H2.42818V12.4972C2.42818 12.5391 2.43457 12.5717 2.44735 12.5952C2.46014 12.6179 2.47789 12.6339 2.50062 12.6431C2.52406 12.6523 2.55105 12.657 2.58159 12.657C2.60289 12.657 2.6242 12.6552 2.64551 12.6516C2.66681 12.6474 2.68315 12.6442 2.69451 12.642L2.76589 12.9798C2.74316 12.9869 2.7112 12.995 2.67001 13.0043C2.62882 13.0142 2.57875 13.0202 2.5198 13.0224C2.41042 13.0266 2.31454 13.0121 2.23216 12.9787C2.15048 12.9453 2.08691 12.8935 2.04146 12.8232C1.996 12.7528 1.97363 12.6641 1.97434 12.5568V10.9716ZM3.31188 13.6136C3.25435 13.6136 3.20037 13.609 3.14995 13.5998C3.10023 13.5913 3.05904 13.5803 3.02637 13.5668L3.12864 13.228C3.18191 13.2443 3.22985 13.2532 3.27246 13.2546C3.31578 13.256 3.35307 13.2461 3.38432 13.2248C3.41628 13.2035 3.44221 13.1673 3.46209 13.1161L3.48873 13.0469L2.90172 11.3636H3.379L3.71777 12.5653H3.73482L4.07679 11.3636H4.55726L3.92125 13.1768C3.89071 13.2649 3.84917 13.3416 3.79661 13.407C3.74476 13.473 3.67907 13.5238 3.59952 13.5593C3.51998 13.5955 3.42409 13.6136 3.31188 13.6136ZM5.24334 10.8182V13H4.78951V10.8182H5.24334ZM6.35263 13.032C6.1843 13.032 6.03942 12.9979 5.91797 12.9297C5.79723 12.8608 5.70419 12.7635 5.63885 12.6378C5.57351 12.5114 5.54084 12.3619 5.54084 12.1893C5.54084 12.021 5.57351 11.8732 5.63885 11.7461C5.70419 11.619 5.79616 11.5199 5.91477 11.4489C6.03409 11.3778 6.17401 11.3423 6.33452 11.3423C6.44247 11.3423 6.54297 11.3597 6.63601 11.3945C6.72976 11.4286 6.81143 11.4801 6.88104 11.549C6.95135 11.6179 7.00604 11.7045 7.0451 11.8089C7.08416 11.9126 7.10369 12.0341 7.10369 12.1733V12.2979H5.72195V12.0167H6.67649C6.67649 11.9513 6.66229 11.8935 6.63388 11.843C6.60547 11.7926 6.56605 11.7532 6.51562 11.7248C6.46591 11.6957 6.40803 11.6811 6.34197 11.6811C6.27308 11.6811 6.212 11.6971 6.15874 11.729C6.10618 11.7603 6.06499 11.8026 6.03516 11.8558C6.00533 11.9084 5.99006 11.967 5.98935 12.0316V12.299C5.98935 12.38 6.00426 12.4499 6.03409 12.5089C6.06463 12.5678 6.1076 12.6133 6.163 12.6452C6.21839 12.6772 6.28409 12.6932 6.36009 12.6932C6.41051 12.6932 6.45668 12.6861 6.49858 12.6719C6.54048 12.6577 6.57635 12.6364 6.60618 12.608C6.63601 12.5795 6.65874 12.5447 6.67436 12.5036L7.09411 12.5312C7.0728 12.6321 7.02912 12.7202 6.96307 12.7955C6.89773 12.87 6.81321 12.9283 6.70952 12.9702C6.60653 13.0114 6.48757 13.032 6.35263 13.032ZM8.00284 13.0266C7.87855 13.0266 7.76598 12.9947 7.66513 12.9308C7.56499 12.8661 7.48544 12.7713 7.42649 12.6463C7.36825 12.5206 7.33913 12.3665 7.33913 12.1839C7.33913 11.9964 7.36932 11.8406 7.42969 11.7163C7.49006 11.5913 7.57031 11.4979 7.67045 11.4361C7.77131 11.3736 7.88175 11.3423 8.00178 11.3423C8.09339 11.3423 8.16974 11.358 8.23082 11.3892C8.29261 11.4197 8.34233 11.4581 8.37997 11.5043C8.41832 11.5497 8.44744 11.5945 8.46733 11.6385H8.48118V10.8182H8.93395V13H8.48651V12.7379H8.46733C8.44602 12.7834 8.41584 12.8285 8.37678 12.8732C8.33842 12.9173 8.28835 12.9538 8.22656 12.983C8.16548 13.0121 8.09091 13.0266 8.00284 13.0266ZM8.14666 12.6655C8.21982 12.6655 8.28161 12.6456 8.33203 12.6058C8.38317 12.5653 8.42223 12.5089 8.44922 12.4364C8.47692 12.364 8.49077 12.2791 8.49077 12.1818C8.49077 12.0845 8.47727 12 8.45028 11.9283C8.4233 11.8565 8.38423 11.8011 8.3331 11.7621C8.28196 11.723 8.21982 11.7035 8.14666 11.7035C8.07209 11.7035 8.00923 11.7237 7.9581 11.7642C7.90696 11.8047 7.86825 11.8608 7.84197 11.9325C7.8157 12.0043 7.80256 12.0874 7.80256 12.1818C7.80256 12.277 7.8157 12.3612 7.84197 12.4343C7.86896 12.5067 7.90767 12.5636 7.9581 12.6048C8.00923 12.6452 8.07209 12.6655 8.14666 12.6655ZM0.920455 17.032C0.752841 17.032 0.608665 16.9964 0.487926 16.9254C0.367898 16.8537 0.275568 16.7543 0.210938 16.6271C0.147017 16.5 0.115057 16.3537 0.115057 16.1882C0.115057 16.0206 0.147372 15.8736 0.212003 15.7472C0.277344 15.62 0.370028 15.521 0.490057 15.4499C0.610085 15.3782 0.752841 15.3423 0.918324 15.3423C1.06108 15.3423 1.18608 15.3683 1.29332 15.4201C1.40057 15.4719 1.48544 15.5447 1.54794 15.6385C1.61044 15.7322 1.64489 15.8423 1.65128 15.9688H1.22301C1.21094 15.8871 1.17898 15.8214 1.12713 15.7717C1.07599 15.7212 1.00888 15.696 0.925781 15.696C0.855469 15.696 0.794034 15.7152 0.741477 15.7536C0.689631 15.7912 0.649148 15.8462 0.620028 15.9187C0.590909 15.9911 0.576349 16.0788 0.576349 16.1818C0.576349 16.2862 0.590554 16.375 0.618963 16.4482C0.648082 16.5213 0.68892 16.5771 0.741477 16.6154C0.794034 16.6538 0.855469 16.6729 0.925781 16.6729C0.977628 16.6729 1.02415 16.6623 1.06534 16.641C1.10724 16.6197 1.14169 16.5888 1.16868 16.5483C1.19638 16.5071 1.21449 16.4577 1.22301 16.4002H1.65128C1.64418 16.5252 1.61009 16.6353 1.54901 16.7305C1.48864 16.8249 1.40518 16.8988 1.29865 16.9521C1.19212 17.0053 1.06605 17.032 0.920455 17.032ZM2.6812 17.032C2.51571 17.032 2.3726 16.9968 2.25186 16.9265C2.13184 16.8555 2.03915 16.7567 1.97381 16.6303C1.90847 16.5032 1.8758 16.3558 1.8758 16.1882C1.8758 16.0192 1.90847 15.8714 1.97381 15.745C2.03915 15.6179 2.13184 15.5192 2.25186 15.4489C2.3726 15.3778 2.51571 15.3423 2.6812 15.3423C2.84668 15.3423 2.98944 15.3778 3.10946 15.4489C3.2302 15.5192 3.32324 15.6179 3.38858 15.745C3.45392 15.8714 3.48659 16.0192 3.48659 16.1882C3.48659 16.3558 3.45392 16.5032 3.38858 16.6303C3.32324 16.7567 3.2302 16.8555 3.10946 16.9265C2.98944 16.9968 2.84668 17.032 2.6812 17.032ZM2.68333 16.6804C2.75861 16.6804 2.82147 16.6591 2.87189 16.6165C2.92232 16.5732 2.96032 16.5142 2.98588 16.4396C3.01216 16.3651 3.0253 16.2802 3.0253 16.185C3.0253 16.0898 3.01216 16.005 2.98588 15.9304C2.96032 15.8558 2.92232 15.7969 2.87189 15.7536C2.82147 15.7102 2.75861 15.6886 2.68333 15.6886C2.60733 15.6886 2.54341 15.7102 2.49157 15.7536C2.44043 15.7969 2.40172 15.8558 2.37544 15.9304C2.34988 16.005 2.33709 16.0898 2.33709 16.185C2.33709 16.2802 2.34988 16.3651 2.37544 16.4396C2.40172 16.5142 2.44043 16.5732 2.49157 16.6165C2.54341 16.6591 2.60733 16.6804 2.68333 16.6804ZM3.78169 17V15.3636H4.21422V15.6523H4.2334C4.26749 15.5565 4.32431 15.4808 4.40385 15.4254C4.4834 15.37 4.57857 15.3423 4.68936 15.3423C4.80158 15.3423 4.89711 15.3704 4.97594 15.4265C5.05478 15.4819 5.10733 15.5572 5.13361 15.6523H5.15066C5.18404 15.5586 5.24441 15.4837 5.33176 15.4276C5.41983 15.3707 5.52388 15.3423 5.64391 15.3423C5.79661 15.3423 5.92054 15.391 6.01571 15.4883C6.11159 15.5849 6.15953 15.7219 6.15953 15.8995V17H5.70676V15.989C5.70676 15.8981 5.68262 15.8299 5.63432 15.7844C5.58603 15.739 5.52566 15.7163 5.45321 15.7163C5.37083 15.7163 5.30655 15.7425 5.26039 15.7951C5.21422 15.8469 5.19114 15.9155 5.19114 16.0007V17H4.75115V15.9794C4.75115 15.8991 4.72807 15.8352 4.68191 15.7876C4.63645 15.7401 4.57644 15.7163 4.50186 15.7163C4.45144 15.7163 4.40598 15.729 4.3655 15.7546C4.32573 15.7795 4.29412 15.8146 4.27069 15.8601C4.24725 15.9048 4.23553 15.9574 4.23553 16.0178V17H3.78169ZM6.51802 17.6136V15.3636H6.96547V15.6385H6.98571C7.00559 15.5945 7.03436 15.5497 7.072 15.5043C7.11035 15.4581 7.16007 15.4197 7.22115 15.3892C7.28294 15.358 7.35964 15.3423 7.45126 15.3423C7.57058 15.3423 7.68066 15.3736 7.78152 15.4361C7.88237 15.4979 7.96298 15.5913 8.02335 15.7163C8.08372 15.8406 8.1139 15.9964 8.1139 16.1839C8.1139 16.3665 8.08443 16.5206 8.02548 16.6463C7.96724 16.7713 7.8877 16.8661 7.78684 16.9308C7.6867 16.9947 7.57449 17.0266 7.4502 17.0266C7.36213 17.0266 7.2872 17.0121 7.22541 16.983C7.16433 16.9538 7.11426 16.9173 7.0752 16.8732C7.03613 16.8285 7.0063 16.7834 6.98571 16.7379H6.97186V17.6136H6.51802ZM6.96227 16.1818C6.96227 16.2791 6.97576 16.364 7.00275 16.4364C7.02974 16.5089 7.0688 16.5653 7.11994 16.6058C7.17108 16.6456 7.23322 16.6655 7.30637 16.6655C7.38024 16.6655 7.44274 16.6452 7.49387 16.6048C7.54501 16.5636 7.58372 16.5067 7.61 16.4343C7.63699 16.3612 7.65048 16.277 7.65048 16.1818C7.65048 16.0874 7.63734 16.0043 7.61106 15.9325C7.58478 15.8608 7.54608 15.8047 7.49494 15.7642C7.4438 15.7237 7.38095 15.7035 7.30637 15.7035C7.23251 15.7035 7.17001 15.723 7.11887 15.7621C7.06845 15.8011 7.02974 15.8565 7.00275 15.9283C6.97576 16 6.96227 16.0845 6.96227 16.1818ZM9.15581 17.032C8.99032 17.032 8.84721 16.9968 8.72647 16.9265C8.60645 16.8555 8.51376 16.7567 8.44842 16.6303C8.38308 16.5032 8.35041 16.3558 8.35041 16.1882C8.35041 16.0192 8.38308 15.8714 8.44842 15.745C8.51376 15.6179 8.60645 15.5192 8.72647 15.4489C8.84721 15.3778 8.99032 15.3423 9.15581 15.3423C9.32129 15.3423 9.46404 15.3778 9.58407 15.4489C9.70481 15.5192 9.79785 15.6179 9.86319 15.745C9.92853 15.8714 9.9612 16.0192 9.9612 16.1882C9.9612 16.3558 9.92853 16.5032 9.86319 16.6303C9.79785 16.7567 9.70481 16.8555 9.58407 16.9265C9.46404 16.9968 9.32129 17.032 9.15581 17.032ZM9.15794 16.6804C9.23322 16.6804 9.29608 16.6591 9.3465 16.6165C9.39693 16.5732 9.43493 16.5142 9.46049 16.4396C9.48677 16.3651 9.49991 16.2802 9.49991 16.185C9.49991 16.0898 9.48677 16.005 9.46049 15.9304C9.43493 15.8558 9.39693 15.7969 9.3465 15.7536C9.29608 15.7102 9.23322 15.6886 9.15794 15.6886C9.08194 15.6886 9.01802 15.7102 8.96618 15.7536C8.91504 15.7969 8.87633 15.8558 8.85005 15.9304C8.82449 16.005 8.8117 16.0898 8.8117 16.185C8.8117 16.2802 8.82449 16.3651 8.85005 16.4396C8.87633 16.5142 8.91504 16.5732 8.96618 16.6165C9.01802 16.6591 9.08194 16.6804 9.15794 16.6804ZM10.7101 16.054V17H10.2563V15.3636H10.6888V15.6523H10.708C10.7442 15.5572 10.805 15.4819 10.8902 15.4265C10.9754 15.3704 11.0787 15.3423 11.2002 15.3423C11.3138 15.3423 11.4129 15.3672 11.4974 15.4169C11.5819 15.4666 11.6476 15.5376 11.6945 15.63C11.7414 15.7216 11.7648 15.831 11.7648 15.9581V17H11.311V16.0391C11.3117 15.9389 11.2861 15.8608 11.2343 15.8047C11.1824 15.7479 11.1111 15.7195 11.0202 15.7195C10.9591 15.7195 10.9051 15.7326 10.8582 15.7589C10.8121 15.7852 10.7758 15.8235 10.7496 15.8739C10.724 15.9237 10.7108 15.9837 10.7101 16.054ZM12.8683 17.032C12.6999 17.032 12.555 16.9979 12.4336 16.9297C12.3129 16.8608 12.2198 16.7635 12.1545 16.6378C12.0891 16.5114 12.0565 16.3619 12.0565 16.1893C12.0565 16.021 12.0891 15.8732 12.1545 15.7461C12.2198 15.619 12.3118 15.5199 12.4304 15.4489C12.5497 15.3778 12.6896 15.3423 12.8501 15.3423C12.9581 15.3423 13.0586 15.3597 13.1516 15.3945C13.2454 15.4286 13.3271 15.4801 13.3967 15.549C13.467 15.6179 13.5217 15.7045 13.5607 15.8089C13.5998 15.9126 13.6193 16.0341 13.6193 16.1733V16.2979H12.2376V16.0167H13.1921C13.1921 15.9513 13.1779 15.8935 13.1495 15.843C13.1211 15.7926 13.0817 15.7532 13.0312 15.7248C12.9815 15.6957 12.9237 15.6811 12.8576 15.6811C12.7887 15.6811 12.7276 15.6971 12.6744 15.729C12.6218 15.7603 12.5806 15.8026 12.5508 15.8558C12.521 15.9084 12.5057 15.967 12.505 16.0316V16.299C12.505 16.38 12.5199 16.4499 12.5497 16.5089C12.5803 16.5678 12.6232 16.6133 12.6786 16.6452C12.734 16.6772 12.7997 16.6932 12.8757 16.6932C12.9261 16.6932 12.9723 16.6861 13.0142 16.6719C13.0561 16.6577 13.092 16.6364 13.1218 16.608C13.1516 16.5795 13.1744 16.5447 13.19 16.5036L13.6097 16.5312C13.5884 16.6321 13.5447 16.7202 13.4787 16.7955C13.4134 16.87 13.3288 16.9283 13.2251 16.9702C13.1222 17.0114 13.0032 17.032 12.8683 17.032ZM14.3693 16.054V17H13.9155V15.3636H14.348V15.6523H14.3672C14.4034 15.5572 14.4641 15.4819 14.5494 15.4265C14.6346 15.3704 14.7379 15.3423 14.8594 15.3423C14.973 15.3423 15.0721 15.3672 15.1566 15.4169C15.2411 15.4666 15.3068 15.5376 15.3537 15.63C15.4006 15.7216 15.424 15.831 15.424 15.9581V17H14.9702V16.0391C14.9709 15.9389 14.9453 15.8608 14.8935 15.8047C14.8416 15.7479 14.7702 15.7195 14.6793 15.7195C14.6183 15.7195 14.5643 15.7326 14.5174 15.7589C14.4712 15.7852 14.435 15.8235 14.4087 15.8739C14.3832 15.9237 14.37 15.9837 14.3693 16.054ZM16.6521 15.3636V15.7045H15.6666V15.3636H16.6521ZM15.8904 14.9716H16.3442V16.4972C16.3442 16.5391 16.3506 16.5717 16.3634 16.5952C16.3762 16.6179 16.3939 16.6339 16.4166 16.6431C16.4401 16.6523 16.4671 16.657 16.4976 16.657C16.5189 16.657 16.5402 16.6552 16.5615 16.6516C16.5828 16.6474 16.5992 16.6442 16.6105 16.642L16.6819 16.9798C16.6592 16.9869 16.6272 16.995 16.586 17.0043C16.5448 17.0142 16.4948 17.0202 16.4358 17.0224C16.3264 17.0266 16.2306 17.0121 16.1482 16.9787C16.0665 16.9453 16.0029 16.8935 15.9575 16.8232C15.912 16.7528 15.8896 16.6641 15.8904 16.5568V14.9716ZM18.2887 15.8303L17.8732 15.8558C17.8661 15.8203 17.8509 15.7884 17.8274 15.7599C17.804 15.7308 17.7731 15.7077 17.7347 15.6907C17.6971 15.6729 17.652 15.6641 17.5994 15.6641C17.5291 15.6641 17.4698 15.679 17.4215 15.7088C17.3732 15.7379 17.3491 15.777 17.3491 15.826C17.3491 15.8651 17.3647 15.8981 17.396 15.9251C17.4272 15.9521 17.4808 15.9737 17.5568 15.9901L17.853 16.0497C18.0121 16.0824 18.1307 16.1349 18.2088 16.2074C18.2869 16.2798 18.326 16.375 18.326 16.4929C18.326 16.6001 18.2944 16.6942 18.2312 16.7752C18.1687 16.8562 18.0827 16.9194 17.9734 16.9648C17.8647 17.0096 17.7393 17.032 17.5973 17.032C17.3807 17.032 17.2081 16.9869 17.0795 16.8967C16.9517 16.8058 16.8768 16.6822 16.8548 16.5259L17.3011 16.5025C17.3146 16.5685 17.3473 16.619 17.3991 16.6538C17.451 16.6879 17.5174 16.7049 17.5984 16.7049C17.6779 16.7049 17.7418 16.6896 17.7901 16.6591C17.8391 16.6278 17.864 16.5877 17.8647 16.5387C17.864 16.4975 17.8466 16.4638 17.8125 16.4375C17.7784 16.4105 17.7259 16.3899 17.6548 16.3757L17.3714 16.3192C17.2116 16.2873 17.0927 16.2319 17.0146 16.1531C16.9371 16.0742 16.8984 15.9737 16.8984 15.8516C16.8984 15.7464 16.9268 15.6559 16.9837 15.5799C17.0412 15.5039 17.1218 15.4453 17.2255 15.4041C17.3299 15.3629 17.4521 15.3423 17.592 15.3423C17.7987 15.3423 17.9613 15.386 18.0799 15.4734C18.1992 15.5607 18.2688 15.6797 18.2887 15.8303Z"/>
</svg>
