<svg width="1" height="1" viewBox="0 0 1 1" fill="none" xmlns="http://www.w3.org/2000/svg">
<path d="M0.0209802 0.0209802C0.0276139 0.0143298 0.0354944 0.00905335 0.0441704 0.00545322C0.0528464 0.00185308 0.0621474 0 0.0715406 0C0.0809339 0 0.0902349 0.00185308 0.0989109 0.00545322C0.107587 0.00905335 0.115467 0.0143298 0.122101 0.0209802L0.500019 0.399041L0.877936 0.0209802C0.884576 0.0143405 0.892459 0.00907363 0.901134 0.00548025C0.909809 0.00188688 0.919107 3.73895e-05 0.928497 3.73895e-05C0.937887 3.73895e-05 0.947185 0.00188688 0.95586 0.00548025C0.964535 0.00907363 0.972418 0.0143405 0.979057 0.0209802C0.985697 0.0276199 0.990964 0.0355023 0.994557 0.0441775C0.998151 0.0528527 1 0.0621507 1 0.0715406C1 0.0809306 0.998151 0.0902286 0.994557 0.0989038C0.990964 0.107579 0.985697 0.115461 0.979057 0.122101L0.600997 0.500019L0.979057 0.877936C0.985697 0.884576 0.990964 0.892459 0.994557 0.901134C0.998151 0.909809 1 0.919107 1 0.928497C1 0.937887 0.998151 0.947185 0.994557 0.95586C0.990964 0.964535 0.985697 0.972418 0.979057 0.979057C0.972418 0.985697 0.964535 0.990964 0.95586 0.994557C0.947185 0.998151 0.937887 1 0.928497 1C0.919107 1 0.909809 0.998151 0.901134 0.994557C0.892459 0.990964 0.884576 0.985697 0.877936 0.979057L0.500019 0.600997L0.122101 0.979057C0.115461 0.985697 0.107579 0.990964 0.0989038 0.994557C0.0902286 0.998151 0.0809306 1 0.0715406 1C0.0621507 1 0.0528527 0.998151 0.0441775 0.994557C0.0355023 0.990964 0.0276199 0.985697 0.0209802 0.979057C0.0143405 0.972418 0.00907363 0.964535 0.00548025 0.95586C0.00188688 0.947185 3.73895e-05 0.937887 3.73895e-05 0.928497C3.73895e-05 0.919107 0.00188688 0.909809 0.00548025 0.901134C0.00907363 0.892459 0.0143405 0.884576 0.0209802 0.877936L0.399041 0.500019L0.0209802 0.122101C0.0143298 0.115467 0.00905335 0.107587 0.00545322 0.0989109C0.00185308 0.0902349 0 0.0809339 0 0.0715406C0 0.0621474 0.00185308 0.0528464 0.00545322 0.0441704C0.00905335 0.0354944 0.0143298 0.0276139 0.0209802 0.0209802Z"/>
</svg>
